<?xml version="1.0" encoding="utf-8"?>
<!-- Generator: Adobe Illustrator 21.0.0, SVG Export Plug-In . SVG Version: 6.00 Build 0)  -->
<!DOCTYPE svg PUBLIC "-//W3C//DTD SVG 1.1//EN" "http://www.w3.org/Graphics/SVG/1.1/DTD/svg11.dtd">
<svg version="1.1" id="Layer_1" xmlns="http://www.w3.org/2000/svg" xmlns:xlink="http://www.w3.org/1999/xlink" x="0px" y="0px"
	 viewBox="0 0 256 410" enable-background="new 0 0 256 410" xml:space="preserve">
<rect fill="#F1F3F8" width="256" height="95"/>
<rect x="9" y="8" fill="#E5E8F1" width="44" height="45"/>
<g>
	<rect y="105" fill="#F1F3F8" width="256" height="95"/>
	<g>
		<rect x="13" y="130" fill="#E5E8F1" width="44" height="45"/>
		<rect x="75" y="130" fill="#E5E8F1" width="44" height="45"/>
		<rect x="137" y="130" fill="#E5E8F1" width="44" height="45"/>
		<rect x="199" y="130" fill="#E5E8F1" width="44" height="45"/>
	</g>
</g>
<g>
	<rect y="210" fill="#F1F3F8" width="256" height="95"/>
	<g>
		<rect x="13" y="235" fill="#E5E8F1" width="44" height="45"/>
		<rect x="75" y="235" fill="#E5E8F1" width="44" height="45"/>
		<rect x="137" y="235" fill="#E5E8F1" width="44" height="45"/>
		<rect x="199" y="235" fill="#E5E8F1" width="44" height="45"/>
	</g>
</g>
<g>
	<rect y="315" fill="#F1F3F8" width="256" height="95"/>
	<g>
		<rect x="13" y="340" fill="#E5E8F1" width="44" height="45"/>
		<rect x="75" y="340" fill="#E5E8F1" width="44" height="45"/>
		<rect x="137" y="340" fill="#E5E8F1" width="44" height="45"/>
		<rect x="199" y="340" fill="#E5E8F1" width="44" height="45"/>
	</g>
</g>
<rect x="60" y="9" fill="#E5E8F1" width="183" height="8"/>
<rect x="60" y="27" fill="#E5E8F1" width="183" height="8"/>
<rect x="10" y="61" fill="#E5E8F1" width="183" height="8"/>
<rect x="60" y="44" fill="#E5E8F1" width="91" height="8"/>
</svg>
