<?xml version="1.0" encoding="UTF-8"?>
<svg width="103px" height="26px" viewBox="0 0 103 26" version="1.1" xmlns="http://www.w3.org/2000/svg" xmlns:xlink="http://www.w3.org/1999/xlink">
    <!-- Generator: Sketch 40.3 (33839) - http://www.bohemiancoding.com/sketch -->
    <title>Linked In</title>
    <desc>Created with Sketch.</desc>
    <defs></defs>
    <g id="Symbols" stroke="none" stroke-width="1" fill="none" fill-rule="evenodd">
        <g id="Splash" transform="translate(-356.000000, -539.000000)" fill="#FFFFFF">
            <g id="Button">
                <g transform="translate(135.000000, 529.000000)">
                    <path d="M221,13.8455926 L225.011222,13.8455926 L225.011222,28.4542222 L232.437111,28.4542222 L232.437111,32.1553704 L221,32.1553704 L221,13.8455926 M236.136333,13.574037 C237.370852,13.574037 238.372815,14.576 238.372815,15.8090741 C238.372815,17.045037 237.370852,18.0441111 236.136333,18.0441111 C234.903259,18.0441111 233.901296,17.045037 233.901296,15.8090741 C233.901296,14.576 234.903259,13.574037 236.136333,13.574037 L236.136333,13.574037 Z M234.208963,32.1491111 L238.064185,32.1491111 L238.064185,19.7418148 L234.208963,19.7418148 L234.208963,32.1491111 Z M254.17937,13.8436667 L258.031704,13.8436667 L258.031704,24.7872593 L262.397296,19.7365185 L267.122556,19.7365185 L262.065556,25.4810741 L267.01663,32.1553704 L262.171481,32.1553704 L258.081778,26.0212963 L258.031704,26.0212963 L258.031704,32.1553704 L254.17937,32.1553704 L254.17937,13.8436667 M240.196185,19.7437407 L243.89637,19.7437407 L243.89637,21.44 L243.947889,21.44 C244.46163,20.4625926 245.721185,19.4360741 247.597037,19.4360741 C251.503778,19.4360741 252.223111,22.0047778 252.223111,25.3448148 L252.223111,32.1495926 L248.367889,32.1495926 L248.367889,26.1161481 C248.367889,24.677 248.341889,22.8281111 246.362519,22.8281111 C244.358593,22.8281111 244.050926,24.3958148 244.050926,26.0131111 L244.050926,32.1495926 L240.196185,32.1495926 L240.196185,19.7437407 M278.499,30.0017037 C277.264963,31.5689259 275.236,32.4697778 273.232074,32.4697778 C269.376852,32.4697778 266.292963,29.8986667 266.292963,25.9158519 C266.292963,21.9325556 269.376852,19.3633704 273.232074,19.3633704 C276.830667,19.3633704 279.090741,21.9325556 279.090741,25.9158519 L279.090741,27.1238889 L270.148185,27.1238889 C270.453926,28.5880741 271.561815,29.5394815 273.051037,29.5394815 C274.312037,29.5394815 275.158,28.8967037 275.800778,28.0228148 L278.499,30.0017037 L278.499,30.0017037 Z M275.236,24.5036667 C275.261037,23.2185926 274.259074,22.1386296 272.87,22.1386296 C271.174704,22.1386296 270.249296,23.2956296 270.148185,24.5036667 L275.236,24.5036667 L275.236,24.5036667 Z M293.752333,32.1476667 L290.205259,32.1476667 L290.205259,30.5029259 L290.155185,30.5029259 C289.562,31.4018519 288.073259,32.4558148 286.325481,32.4558148 C282.622889,32.4558148 280.182259,29.7845556 280.182259,26.0063704 C280.182259,22.5368148 282.340259,19.3498889 285.88637,19.3498889 C287.481037,19.3498889 288.972185,19.7865926 289.846074,20.9946296 L289.89663,20.9946296 L289.89663,13.8436667 L293.752333,13.8436667 L293.752333,32.1476667 L293.752333,32.1476667 Z M287.119444,22.7424074 C285.193037,22.7424074 284.037481,24.0284444 284.037481,25.9014074 C284.037481,27.7806296 285.193037,29.0637778 287.119444,29.0637778 C289.048259,29.0637778 290.205259,27.7806296 290.205259,25.9014074 C290.205259,24.0284444 289.048259,22.7424074 287.119444,22.7424074 L287.119444,22.7424074 Z M319.762444,32.1553704 L315.910111,32.1553704 L315.910111,26.1214444 C315.910111,24.6822963 315.882185,22.8314815 313.906185,22.8314815 C311.89937,22.8314815 311.593148,24.3987037 311.593148,26.0179259 L311.593148,32.1553704 L307.737926,32.1553704 L307.737926,19.7475926 L311.437148,19.7475926 L311.437148,21.4428889 L311.490111,21.4428889 C312.005296,20.4674074 313.263407,19.4384815 315.139259,19.4384815 C319.041667,19.4384815 319.762444,22.0076667 319.762444,25.3496296 L319.762444,32.1553704 L319.762444,32.1553704 Z M303.390148,18.0513333 C302.154667,18.0513333 301.155593,17.0493704 301.155593,15.8148519 C301.155593,14.5817778 302.154667,13.5793333 303.390148,13.5793333 C304.623704,13.5793333 305.625667,14.5817778 305.625667,15.8148519 C305.625667,17.0493704 304.623704,18.0513333 303.390148,18.0513333 L303.390148,18.0513333 Z M301.461333,32.1548889 L305.319444,32.1548889 L305.319444,19.7475926 L301.461333,19.7475926 L301.461333,32.1548889 Z M321.683074,10 L299.527222,10 C298.467481,10 297.607074,10.8397037 297.607074,11.8734444 L297.607074,34.1241481 C297.607074,35.1593333 298.467481,36 299.527222,36 L321.683074,36 C322.743296,36 323.609,35.1593333 323.609,34.1241481 L323.609,11.8734444 C323.609,10.8397037 322.743296,10 321.683074,10 L321.683074,10 Z" id="Linked-In"></path>
                </g>
            </g>
        </g>
    </g>
</svg>