<?xml version="1.0" encoding="UTF-8"?>
<svg width="285px" height="41px" viewBox="0 0 285 41" version="1.1" xmlns="http://www.w3.org/2000/svg" xmlns:xlink="http://www.w3.org/1999/xlink">
    <!-- Generator: Sketch 41.2 (35397) - http://www.bohemiancoding.com/sketch -->
    <title>Logo</title>
    <desc>Created with Sketch.</desc>
    <defs></defs>
    <g id="Onboarding-1.0" stroke="none" stroke-width="1" fill="none" fill-rule="evenodd">
        <g id="CE-2.1-•-Onboard-A6" transform="translate(-32.000000, -103.000000)">
            <g id="Navigation/Onboarding" transform="translate(0.000000, 74.000000)">
                <g id="Logo-Mobile" transform="translate(15.000000, 23.000000)">
                    <g id="Logo">
                        <rect id="Frame" x="0" y="0.894230769" width="330" height="52.3557692"></rect>
                        <path d="M73.6900024,16.1563898 C73.6900024,15.8278226 74.0185696,15.4992555 74.3471367,15.4992555 L76.5375842,15.4992555 C76.8661513,15.4992555 77.1947184,15.8278226 77.1947184,16.1563898 L77.1947184,38.170387 C77.1947184,38.4989542 76.8661513,38.8275213 76.5375842,38.8275213 L74.3471367,38.8275213 C74.0185696,38.8275213 73.6900024,38.4989542 73.6900024,38.170387 L73.6900024,16.1563898 Z M86.9422098,15.7183003 C86.9422098,15.3897331 87.2707769,15.1706884 87.599344,15.1706884 L88.475523,15.1706884 L102.932476,31.8180893 L102.932476,16.1563898 C102.932476,15.8278226 103.151521,15.4992555 103.589611,15.4992555 L105.670536,15.4992555 C105.999103,15.4992555 106.32767,15.8278226 106.32767,16.1563898 L106.32767,38.4989542 C106.32767,38.8275213 105.999103,39.046566 105.670536,39.046566 L104.794357,39.046566 L90.3374034,21.9610756 L90.3374034,38.170387 C90.3374034,38.4989542 90.1183586,38.8275213 89.6802691,38.8275213 L87.599344,38.8275213 C87.2707769,38.8275213 86.9422098,38.4989542 86.9422098,38.170387 L86.9422098,15.7183003 L86.9422098,15.7183003 Z M119.25131,18.565882 L113.884714,18.565882 C113.556147,18.565882 113.22758,18.2373149 113.22758,17.9087477 L113.22758,16.1563898 C113.22758,15.8278226 113.446624,15.4992555 113.884714,15.4992555 L128.232145,15.4992555 C128.560712,15.4992555 128.889279,15.8278226 128.889279,16.1563898 L128.889279,18.0182701 C128.889279,18.3468372 128.670234,18.6754044 128.232145,18.6754044 L122.865549,18.6754044 L122.865549,38.170387 C122.865549,38.4989542 122.536981,38.8275213 122.208414,38.8275213 L120.017967,38.8275213 C119.6894,38.8275213 119.360833,38.4989542 119.360833,38.170387 L119.360833,18.565882 L119.25131,18.565882 Z M135.679666,16.1563898 C135.679666,15.8278226 135.898711,15.4992555 136.336801,15.4992555 L145.427158,15.4992555 C149.369963,15.4992555 152.655634,18.6754044 152.655634,22.6182099 C152.655634,25.6848363 150.574709,28.203851 147.727128,29.4085971 L152.327067,37.8418199 C152.546112,38.2799094 152.327067,38.8275213 151.779455,38.8275213 L149.150918,38.8275213 C148.931874,38.8275213 148.712829,38.6084765 148.603307,38.4989542 L144.222412,29.7371642 L139.184382,29.7371642 L139.184382,38.170387 C139.184382,38.4989542 138.855815,38.8275213 138.527248,38.8275213 L136.336801,38.8275213 C136.008234,38.8275213 135.679666,38.4989542 135.679666,38.170387 L135.679666,16.1563898 Z M144.989068,26.7800601 C147.179516,26.7800601 149.041396,24.9181797 149.041396,22.6182099 C149.041396,20.4277624 147.179516,18.6754044 144.989068,18.6754044 L139.07486,18.6754044 L139.07486,26.7800601 L144.989068,26.7800601 Z M161.088857,16.1563898 C161.088857,15.8278226 161.417424,15.4992555 161.745992,15.4992555 L163.936439,15.4992555 C164.265006,15.4992555 164.593573,15.8278226 164.593573,16.1563898 L164.593573,38.170387 C164.593573,38.4989542 164.265006,38.8275213 163.936439,38.8275213 L161.745992,38.8275213 C161.417424,38.8275213 161.088857,38.4989542 161.088857,38.170387 L161.088857,16.1563898 Z M184.636168,15.1706884 C188.031361,15.1706884 190.440854,16.2659121 192.631301,18.2373149 C192.959868,18.4563596 192.959868,18.8944491 192.631301,19.2230162 L191.20751,20.7563295 C190.988466,21.0848966 190.659898,21.0848966 190.331331,20.7563295 C188.798018,19.442061 186.607571,18.565882 184.526645,18.565882 C179.817183,18.565882 176.202945,22.5086875 176.202945,27.2181496 C176.202945,31.9276117 179.817183,35.8704172 184.636168,35.8704172 C187.04566,35.8704172 188.798018,34.8847158 190.331331,33.6799697 C190.659898,33.4609249 190.878943,33.4609249 191.097988,33.6799697 L192.631301,35.2132829 C192.850346,35.4323277 192.850346,35.8704172 192.631301,36.0894619 C190.331331,38.2799094 187.48375,39.2656108 184.526645,39.2656108 C177.845781,39.2656108 172.479184,34.0085368 172.479184,27.327672 C172.588707,20.5372847 177.955303,15.1706884 184.636168,15.1706884 Z M197.66933,37.8418199 L207.854911,15.4992555 C207.964434,15.2802108 208.293001,15.1706884 208.402523,15.1706884 L208.73109,15.1706884 C208.950135,15.1706884 209.16918,15.3897331 209.278702,15.4992555 L219.464283,37.8418199 C219.683328,38.2799094 219.354761,38.7179989 218.916671,38.7179989 L216.835746,38.7179989 C216.397656,38.7179989 216.178612,38.4989542 216.069089,38.170387 L213.988164,33.5704473 L203.145449,33.5704473 C202.488315,35.1037605 201.831181,36.6370738 201.064524,38.170387 C200.955002,38.3894318 200.735957,38.7179989 200.297867,38.7179989 L198.216942,38.7179989 C197.66933,38.7179989 197.450286,38.2799094 197.66933,37.8418199 Z M212.673896,30.8323879 L208.621568,21.7420309 L208.402523,21.7420309 L204.350195,30.8323879 L212.673896,30.8323879 Z M228.11655,18.565882 L222.640432,18.565882 C222.311865,18.565882 221.983297,18.2373149 221.983297,17.9087477 L221.983297,16.1563898 C221.983297,15.8278226 222.202342,15.4992555 222.640432,15.4992555 L236.987863,15.4992555 C237.31643,15.4992555 237.644997,15.8278226 237.644997,16.1563898 L237.644997,18.0182701 C237.644997,18.3468372 237.425952,18.6754044 236.987863,18.6754044 L231.621266,18.6754044 L231.621266,38.170387 C231.621266,38.4989542 231.292699,38.8275213 230.964132,38.8275213 L228.773685,38.8275213 C228.445118,38.8275213 228.11655,38.4989542 228.11655,38.170387 L228.11655,18.565882 Z M244.544907,16.1563898 C244.544907,15.8278226 244.763951,15.4992555 245.202041,15.4992555 L258.454248,15.4992555 C258.782815,15.4992555 259.111382,15.8278226 259.111382,16.1563898 L259.111382,18.0182701 C259.111382,18.3468372 258.892338,18.6754044 258.454248,18.6754044 L247.9401,18.6754044 L247.9401,25.4657916 L256.811413,25.4657916 C257.13998,25.4657916 257.468547,25.7943587 257.468547,26.1229258 L257.468547,27.9848062 C257.468547,28.3133733 257.13998,28.6419404 256.811413,28.6419404 L247.9401,28.6419404 L247.9401,35.7608948 L258.454248,35.7608948 C258.782815,35.7608948 259.111382,36.0894619 259.111382,36.418029 L259.111382,38.2799094 C259.111382,38.6084765 258.892338,38.9370437 258.454248,38.9370437 L245.202041,38.9370437 C244.873474,38.9370437 244.544907,38.6084765 244.544907,38.2799094 L244.544907,16.1563898 Z M267.435083,16.1563898 C267.435083,15.8278226 267.654128,15.4992555 268.092217,15.4992555 L270.282665,15.4992555 C270.611232,15.4992555 270.939799,15.8278226 270.939799,16.1563898 L270.939799,35.7608948 L279.920634,35.7608948 C280.249201,35.7608948 280.577768,36.0894619 280.577768,36.418029 L280.577768,38.2799094 C280.577768,38.6084765 280.358723,38.9370437 279.920634,38.9370437 L268.092217,38.9370437 C267.76365,38.9370437 267.435083,38.6084765 267.435083,38.2799094 L267.435083,16.1563898 L267.435083,16.1563898 Z M290.215737,27.5467167 L282.439648,16.4849569 C282.220603,16.0468674 282.439648,15.4992555 282.98726,15.4992555 L285.396752,15.4992555 C285.615797,15.4992555 285.834842,15.7183003 285.944364,15.8278226 L291.968095,24.2610455 L297.991825,15.8278226 C298.101348,15.7183003 298.320393,15.4992555 298.539437,15.4992555 L301.058452,15.4992555 C301.606064,15.4992555 301.825108,16.0468674 301.606064,16.4849569 L293.720453,27.5467167 L293.720453,38.170387 C293.720453,38.4989542 293.391886,38.8275213 293.063319,38.8275213 L290.872871,38.8275213 C290.544304,38.8275213 290.215737,38.4989542 290.215737,38.170387 L290.215737,27.5467167 Z" id="Intricately-Logo-Text" fill="#FFFFFF"></path>
                        <path d="M53.6413358,39.2915531 C56.3225347,35.8283379 57.998284,31.4713896 57.998284,26.6675749 C57.998284,21.7520436 56.3225347,17.2833787 53.4179025,13.8201635 C53.3061859,13.5967302 52.971036,13.5967302 52.8593194,13.8201635 L51.2952867,15.3841962 C51.1835701,15.4959128 51.1835701,15.719346 51.2952867,15.9427793 C53.1944693,18.400545 54.5350687,21.3051771 54.8702186,24.5449591 C54.8702186,24.6566757 54.758502,24.7683924 54.6467854,24.7683924 L51.2952867,24.7683924 C51.1835701,24.7683924 51.0718535,24.6566757 51.0718535,24.5449591 C49.9546873,17.6185286 43.6985565,12.3678474 36.3252595,12.9264305 C29.6222622,13.5967302 24.2598644,18.9591281 23.8129979,25.6621253 C23.5895646,28.9019074 24.4832976,31.9182561 26.1590469,34.4877384 C26.2707636,34.7111717 26.6059134,34.7111717 26.8293467,34.4877384 L28.3933794,32.9237057 C28.505096,32.8119891 28.505096,32.5885559 28.3933794,32.4768392 C27.1644965,30.5776567 26.4941968,28.119891 26.8293467,25.6621253 C27.3879298,20.5231608 31.744878,16.3896458 36.8838426,16.1662125 C43.0282567,15.8310627 48.1672213,20.746594 48.1672213,26.8910082 C48.1672213,32.1416894 44.4805728,36.386921 39.5650415,37.3923706 C39.4533249,37.3923706 39.2298916,37.280654 39.2298916,37.1689373 L39.2298916,33.7057221 C39.2298916,33.5940054 39.3416082,33.4822888 39.3416082,33.4822888 C42.2462404,32.7002725 44.2571396,30.0190736 44.2571396,26.8910082 C44.2571396,25.773842 44.0337063,24.6566757 43.4751232,23.7629428 C43.3634066,23.6512262 43.25169,23.6512262 43.1399734,23.7629428 L41.2407908,25.6621253 C41.1290742,25.773842 41.0173576,25.9972752 41.1290742,26.2207084 C41.2407908,26.8910082 41.2407908,27.5613079 41.0173576,28.2316076 C40.5704911,29.4604905 39.5650415,30.3542234 38.3361586,30.6893733 C35.4315265,31.359673 32.8620442,28.7901907 33.6440606,25.9972752 C33.9792104,24.7683924 34.98466,23.6512262 36.2135428,23.3160763 C36.8838426,23.0926431 37.6658589,23.0926431 38.3361586,23.3160763 C38.5595919,23.3160763 38.7830251,23.3160763 38.8947418,23.2043597 L40.7939243,21.3051771 C40.9056409,21.1934605 40.9056409,21.0817439 40.7939243,20.9700272 C39.5650415,20.2997275 38.0010088,19.9645777 36.4369761,20.1880109 C33.5323439,20.6348774 31.1862949,22.9809264 30.7394284,25.8855586 C30.1808453,29.6839237 32.638611,32.9237057 36.1018262,33.7057221 C36.2135428,33.7057221 36.3252595,33.8174387 36.3252595,33.9291553 L36.3252595,37.3923706 C36.3252595,37.5040872 36.2135428,37.6158038 36.1018262,37.6158038 C34.4260769,37.3923706 32.9737608,36.8337875 31.6331614,35.9400545 C31.5214448,35.8283379 31.2980115,35.8283379 31.0745783,35.9400545 L29.3988289,37.1689373 C29.1753957,37.3923706 29.2871123,37.6158038 29.3988289,37.8392371 C31.6331614,39.5149864 34.4260769,40.4087193 37.4424257,40.4087193 C44.5922894,40.4087193 50.4015537,34.9346049 51.0718535,28.0081744 C51.0718535,27.8964578 51.1835701,27.7847411 51.2952867,27.7847411 L54.5350687,27.7847411 C54.6467854,27.7847411 54.758502,27.8964578 54.758502,28.0081744 C54.5350687,31.359673 53.1944693,34.599455 51.2952867,37.1689373 C51.1835701,37.280654 51.1835701,37.5040872 51.2952867,37.7275204 L53.0827527,39.2915531 C53.3061859,39.5149864 53.5296191,39.4032698 53.6413358,39.2915531 Z M48.0555047,12.5912807 C48.1672213,12.7029973 48.3906546,12.7029973 48.5023712,12.5912807 L50.0664039,11.027248 C50.2898371,10.8038147 50.1781205,10.5803815 50.0664039,10.4686649 C46.6031886,7.78746594 42.2462404,6 37.5541423,6 C27.1644965,6 18.5623167,13.9318801 17.2217172,23.6512262 C17.2217172,23.8746594 17.3334339,24.0980926 17.6685837,24.0980926 L19.9029161,24.0980926 C20.1263494,24.0980926 20.238066,23.986376 20.3497826,23.7629428 C21.4669488,15.4959128 28.7285292,9.01634877 37.5541423,9.01634877 C41.464224,9.01634877 45.1508725,10.3569482 48.0555047,12.5912807 Z M48.2789379,40.4087193 C45.2625892,42.7547684 41.5759407,43.9836512 37.4424257,43.9836512 C28.3933794,43.9836512 21.0200824,37.1689373 20.0146328,28.2316076 C20.0146328,28.0081744 19.7911995,27.8964578 19.5677663,27.8964578 L17.3334339,27.8964578 C17.3334339,27.8964578 17.1100006,28.119891 17.1100006,28.3433243 C18.1154502,38.8446866 26.8293467,47 37.5541423,47 C42.4696736,47 46.9383385,45.3242507 50.4015537,42.5313351 C50.624987,42.4196185 50.624987,42.0844687 50.4015537,41.972752 L48.837521,40.4087193 C48.7258044,40.2970027 48.5023712,40.2970027 48.2789379,40.4087193 Z" id="Intricately-Logo" fill="#FF3D6B"></path>
                    </g>
                </g>
            </g>
        </g>
    </g>
</svg>