<?xml version="1.0" encoding="UTF-8"?>
<svg width="20px" height="20px" viewBox="0 0 20 20" version="1.1" xmlns="http://www.w3.org/2000/svg" xmlns:xlink="http://www.w3.org/1999/xlink">
    <!-- Generator: Sketch 41 (35326) - http://www.bohemiancoding.com/sketch -->
    <title>Icon/Star/Black</title>
    <desc>Created with Sketch.</desc>
    <defs></defs>
    <g id="-Style-Guide" stroke="none" stroke-width="1" fill="none" fill-rule="evenodd">
        <g id="Style-Guide" transform="translate(-371.000000, -1783.000000)">
            <g id="Icons" transform="translate(40.000000, 1309.000000)">
                <g id="Icon/Star/Black" transform="translate(329.000000, 472.000000)">
                    <g>
                        <rect id="Icon-Bounding-Box" x="0" y="0" width="24" height="24"></rect>
                        <path d="M14.0135961,9.52205316 C14.1718741,9.85971289 14.5111473,10.0753761 14.8840629,10.0753761 L21.0367304,10.0753761 L20.3429387,8.44854817 L15.8245735,13.1591842 C15.5950102,13.3985162 15.5050096,13.7392675 15.58645,14.0607431 L17.4130232,21.2709003 L18.82462,20.2016839 L12.4796816,16.5485376 C12.182744,16.3775735 11.817256,16.3775735 11.5203184,16.5485376 L5.17538,20.2016839 L6.58697678,21.2709003 L8.41354996,14.0607431 C8.49499043,13.7392675 8.40498977,13.3985162 8.17542647,13.1591842 L3.65706126,8.44854817 L2.96326958,10.0753761 L9.1159371,10.0753761 C9.48885267,10.0753761 9.82812594,9.85971289 9.98640394,9.52205316 L12.8704668,3.36938563 L11.1295332,3.36938563 L14.0135961,9.52205316 Z M11.1295332,2.55332297 L8.24547026,8.70599049 L9.1159371,8.15266752 L2.96326958,8.15266752 C2.11641626,8.15266752 1.6832647,9.16833705 2.26947789,9.77949548 L6.7878431,14.4901316 L6.54971962,13.5885727 L4.72314645,20.79873 C4.51450676,21.6223077 5.39846556,22.2918638 6.13474323,21.8679464 L12.4796816,18.2148 L11.5203184,18.2148 L17.8652568,21.8679464 C18.6015344,22.2918638 19.4854932,21.6223077 19.2768536,20.79873 L17.4502804,13.5885727 L17.2121569,14.4901316 L21.7305221,9.77949548 C22.3167353,9.16833705 21.8835837,8.15266752 21.0367304,8.15266752 L14.8840629,8.15266752 L15.7545297,8.70599049 L12.8704668,2.55332297 C12.52464,1.81555901 11.47536,1.81555901 11.1295332,2.55332297 Z" id="Shape" fill="#FFFFFF"></path>
                    </g>
                </g>
            </g>
        </g>
    </g>
</svg>
