<?xml version="1.0" encoding="UTF-8"?>
<svg width="10px" height="12px" viewBox="0 0 10 12" version="1.1" xmlns="http://www.w3.org/2000/svg" xmlns:xlink="http://www.w3.org/1999/xlink">
    <!-- Generator: Sketch 41 (35326) - http://www.bohemiancoding.com/sketch -->
    <title>Icon/Arrow Right/Black</title>
    <desc>Created with Sketch.</desc>
    <defs></defs>
    <g id="-Style-Guide" stroke="none" stroke-width="1" fill="none" fill-rule="evenodd">
        <g id="Style-Guide" transform="translate(-376.000000, -1563.000000)">
            <g id="Icons" transform="translate(40.000000, 1309.000000)">
                <g id="Icon/Arrow-Right/Black" transform="translate(329.000000, 248.000000)">
                    <g transform="translate(12.000000, 12.000000) rotate(-90.000000) translate(-12.000000, -12.000000) ">
                        <rect id="Icon-Bounding-Box" x="0" y="0" width="24" height="24"></rect>
                        <path d="M17,7 L7,7 C6.637,7 6.302,7.197 6.125,7.515 C5.949,7.833 5.959,8.222 6.152,8.53 L11.152,16.53 C11.335,16.822 11.655,17 12,17 C12.345,17 12.665,16.822 12.848,16.53 L17.848,8.53 C18.041,8.222 18.051,7.833 17.875,7.515 C17.698,7.197 17.363,7 17,7 L17,7 Z" id="Shape" fill="#000F40"></path>
                    </g>
                </g>
            </g>
        </g>
    </g>
</svg>